<svg xmlns="http://www.w3.org/2000/svg" width="800px" height="800px" viewBox="0 0 1024 1024" class="icon" version="1.1"><path d="M528.64 482.56m-396.8 0a396.8 396.8 0 1 0 793.6 0 396.8 396.8 0 1 0-793.6 0Z" fill="#A7BFB7"/><path d="M528.64 892.16c-225.28 0-409.6-184.32-409.6-409.6s184.32-409.6 409.6-409.6 409.6 184.32 409.6 409.6-184.32 409.6-409.6 409.6z m0-793.6c-211.2 0-384 172.8-384 384s172.8 384 384 384 384-172.8 384-384-172.8-384-384-384z" fill="#231C1C"/><path d="M528.64 482.56m-345.6 0a345.6 345.6 0 1 0 691.2 0 345.6 345.6 0 1 0-691.2 0Z" fill="#F2E5CA"/><path d="M528.64 840.96c-197.12 0-358.4-161.28-358.4-358.4s161.28-358.4 358.4-358.4 358.4 161.28 358.4 358.4-161.28 358.4-358.4 358.4z m0-691.2c-183.04 0-332.8 149.76-332.8 332.8s149.76 332.8 332.8 332.8 332.8-149.76 332.8-332.8-149.76-332.8-332.8-332.8z" fill="#231C1C"/><path d="M528.64 814.08l-75.52-331.52 75.52-331.52 74.24 331.52z" fill="#B8CA43"/><path d="M528.64 826.88c-6.4 0-11.52-3.84-12.8-10.24l-75.52-331.52v-5.12l75.52-331.52c1.28-6.4 6.4-10.24 12.8-10.24s11.52 3.84 12.8 10.24l75.52 331.52v5.12l-75.52 331.52c-2.56 6.4-7.68 10.24-12.8 10.24z m-62.72-344.32l61.44 273.92L588.8 482.56l-61.44-273.92-61.44 273.92z" fill="#231C1C"/><path d="M195.84 482.56l332.8-75.52 331.52 75.52-331.52 75.52z" fill="#B8CA43"/><path d="M528.64 570.88h-2.56l-331.52-75.52c-6.4-1.28-10.24-6.4-10.24-12.8s3.84-11.52 10.24-12.8L524.8 395.52h5.12l331.52 75.52c6.4 1.28 10.24 6.4 10.24 12.8s-3.84 11.52-10.24 12.8l-331.52 75.52c0-2.56-1.28-1.28-1.28-1.28z m-273.92-88.32l273.92 61.44 273.92-61.44-273.92-61.44-273.92 61.44z" fill="#231C1C"/><path d="M323.84 687.36l158.72-250.88 249.6-158.72-157.44 250.88z" fill="#B8CA43"/><path d="M323.84 700.16c-3.84 0-6.4-1.28-8.96-3.84-3.84-3.84-5.12-10.24-1.28-15.36l158.72-250.88 3.84-3.84 250.88-158.72c5.12-2.56 11.52-2.56 15.36 1.28 3.84 3.84 5.12 10.24 1.28 15.36L584.96 535.04l-3.84 3.84-250.88 158.72c-1.28 1.28-3.84 2.56-6.4 2.56z m167.68-254.72l-126.72 199.68 199.68-126.72L691.2 320l-199.68 125.44z" fill="#231C1C"/><path d="M323.84 277.76l250.88 158.72 157.44 250.88-249.6-158.72z" fill="#B8CA43"/><path d="M732.16 700.16c-2.56 0-5.12-1.28-6.4-2.56L474.88 540.16l-3.84-3.84-157.44-250.88c-2.56-5.12-2.56-11.52 1.28-15.36 3.84-3.84 10.24-5.12 15.36-1.28l250.88 158.72 3.84 3.84 158.72 250.88c2.56 5.12 2.56 11.52-1.28 15.36-3.84 1.28-6.4 2.56-10.24 2.56zM491.52 519.68L691.2 646.4l-126.72-199.68L364.8 320l126.72 199.68z" fill="#231C1C"/><path d="M528.64 482.56m-230.4 0a230.4 230.4 0 1 0 460.8 0 230.4 230.4 0 1 0-460.8 0Z" fill="#A7BFB7"/><path d="M528.64 725.76c-134.4 0-243.2-108.8-243.2-243.2s108.8-243.2 243.2-243.2 243.2 108.8 243.2 243.2-108.8 243.2-243.2 243.2z m0-460.8c-120.32 0-217.6 97.28-217.6 217.6s97.28 217.6 217.6 217.6 217.6-97.28 217.6-217.6-97.28-217.6-217.6-217.6z" fill="#231C1C"/><path d="M304.64 705.28l172.8-272.64 273.92-172.8-172.8 272.64z" fill="#FAC546"/><path d="M304.64 718.08c-3.84 0-6.4-1.28-8.96-3.84-3.84-3.84-5.12-10.24-1.28-15.36l172.8-273.92 3.84-3.84 273.92-172.8c5.12-2.56 11.52-2.56 15.36 1.28s5.12 10.24 1.28 15.36L590.08 540.16l-3.84 3.84L312.32 716.8c-2.56 1.28-5.12 1.28-7.68 1.28z m183.04-276.48L345.6 664.32l222.72-140.8 140.8-222.72-221.44 140.8z" fill="#231C1C"/><path d="M528.64 482.56m-38.4 0a38.4 38.4 0 1 0 76.8 0 38.4 38.4 0 1 0-76.8 0Z" fill="#E64C45"/><path d="M528.64 533.76c-28.16 0-51.2-23.04-51.2-51.2s23.04-51.2 51.2-51.2 51.2 23.04 51.2 51.2-23.04 51.2-51.2 51.2z m0-76.8c-14.08 0-25.6 11.52-25.6 25.6s11.52 25.6 25.6 25.6 25.6-11.52 25.6-25.6-11.52-25.6-25.6-25.6z" fill="#231C1C"/></svg>