<svg xmlns="http://www.w3.org/2000/svg" xmlns:xlink="http://www.w3.org/1999/xlink" version="1.1" id="Layer_1" viewBox="0 0 512 512" xml:space="preserve">
<path style="fill:#88C5CC;" d="M456,128c-35.288,0-64-28.712-64-64c0-7.828,1.484-15.3,4.072-22.244C355.816,15.392,307.72,0,256,0  C114.616,0,0,114.616,0,256s114.616,256,256,256s256-114.616,256-256c0-47.956-13.22-92.816-36.168-131.184  C469.584,126.86,462.92,128,456,128z"/>
<circle style="fill:#4AB8A1;" cx="456" cy="64" r="56"/>
<g>
	<path style="fill:#FFFFFF;" d="M456,96c-4.416,0-8-3.584-8-8V40c0-4.416,3.584-8,8-8s8,3.584,8,8v48C464,92.416,460.416,96,456,96z   "/>
	<path style="fill:#FFFFFF;" d="M480,72h-48c-4.416,0-8-3.584-8-8s3.584-8,8-8h48c4.416,0,8,3.584,8,8S484.416,72,480,72z"/>
</g>
<rect x="333.674" y="329.684" transform="matrix(0.707 -0.7072 0.7072 0.707 -143.4325 349.1605)" style="fill:#E6E6E6;" width="32" height="36"/>
<path style="fill:#263740;" d="M387.84,351.9c-9.372-9.372-24.576-9.372-33.94,0c-9.372,9.376-9.372,24.576,0,33.94l66.42,66.416  c12.28-10.296,23.6-21.712,33.764-34.112L387.84,351.9z"/>
<circle style="fill:#C2E2F2;" cx="256" cy="256" r="112"/>
<circle style="fill:#DAEAF2;" cx="288" cy="216" r="28"/>
<path style="fill:#B8D6E6;" d="M208.804,335.196c-43.744-43.74-43.74-114.652,0-158.392c17.788-17.788,40.076-28.34,63.196-31.66  c-33.732-4.84-69.248,5.712-95.196,31.66c-43.74,43.74-43.744,114.648,0,158.392c25.948,25.948,61.464,36.5,95.196,31.66  C248.88,363.536,226.592,352.984,208.804,335.196z"/>
<path style="fill:#263740;" d="M343.68,343.68c-48.348,48.348-127.016,48.348-175.364,0c-48.344-48.344-48.348-127.012,0-175.36  c48.352-48.352,127.016-48.352,175.364,0C392.028,216.664,392.028,295.332,343.68,343.68z M185.288,185.288  c-38.992,38.992-38.992,102.428,0,141.416c38.988,38.988,102.432,38.988,141.416,0c38.992-38.988,38.992-102.432,0.008-141.416  C287.72,146.296,224.276,146.296,185.288,185.288z"/>
<path style="fill:#FFD464;" d="M399.152,329.272c3.112,3.104,3.112,8.204,0,11.312l-56.568,56.572  c-3.108,3.108-8.204,3.108-11.312,0l-5.664-5.656c-3.104-3.108-3.104-8.208,0-11.316l56.576-56.568  c3.108-3.108,8.208-3.112,11.312,0L399.152,329.272z"/>
</svg>