<svg xmlns="http://www.w3.org/2000/svg" xmlns:xlink="http://www.w3.org/1999/xlink" height="800px" width="800px" version="1.1" id="_x34_" viewBox="0 0 512 512" xml:space="preserve">
<g>
	<g>
		<g>
			<g>
				<g>
					<g>
						<path style="fill:#C7BA81;" d="M256.005,16.504v40.902c-54.291,0-102.475,25.968-131.901,65.84        c-18.17,24.35-29.205,53.923-30.309,85.997c-0.147,1.839-0.147,3.752-0.147,5.664c0,7.283,0.515,14.64,1.545,21.775        l-3.163,0.368l-8.166,0.883L48.7,241.759c-1.25-8.828-1.913-17.876-1.913-26.851c0-1.839,0-3.605,0.147-5.444        c0.441-17.876,3.384-35.311,8.681-52.01c1.913-6.105,4.193-12.138,6.768-18.097c6.18-14.125,14.051-27.66,23.614-40.166        c6.326-8.386,13.463-16.405,21.26-23.909C146.909,37.396,199.655,16.504,256.005,16.504z"/>
					</g>
					<path style="fill:#FBECBA;" d="M256.005,3.899v40.902c-55.688,0-105.271,29.573-136.756,75.331       c-17.582,25.453-29.426,55.909-33.619,89.087v0.074c-1.177,8.827-1.766,17.802-1.766,26.924v1.692       c0.074,6.915,0.515,13.977,1.251,20.893l-16.037,1.986l-24.497,3.09c-0.147-1.545-0.368-3.09-0.441-4.635v-0.074       c-0.736-7.65-1.103-15.302-1.103-22.952c0-8.902,0.441-17.655,1.398-26.336v-0.073c1.03-10.005,2.648-19.863,4.855-29.499       c1.692-7.724,3.826-15.375,6.326-22.879c1.913-6.106,4.193-12.138,6.768-18.097c0.736-1.766,1.471-3.531,2.428-5.297       c5.444-12.506,12.138-24.497,19.863-35.752c6.032-8.975,12.8-17.508,20.083-25.6c32.442-35.679,73.491-58.41,118.072-65.914       l0.073-0.074C233.789,4.855,244.823,3.899,256.005,3.899z"/>
				</g>
				<g>
					<g>
						<path style="fill:#535955;" d="M69.077,258.212V367.75H54.806c-14.051,0-26.851-5.37-36.562-14.198        C7.062,343.621,0,329.128,0,313.017c0-15.081,6.18-28.764,16.111-38.695c0.662-0.662,1.398-1.398,2.133-1.913        c7.21-6.547,16.111-11.182,25.895-13.168c3.458-0.662,6.989-1.03,10.667-1.03H69.077z"/>
						<path style="fill:#85BCC4;" d="M121.97,225.255v175.451c0,8.828-7.136,16.037-15.963,16.037H50.686        c-2.795,0-5.444-0.368-8.019-1.03c-11.402-2.943-20.451-11.917-23.32-23.32c-0.735-2.575-1.104-5.296-1.104-8.092V241.66        c0-15.669,11.329-28.837,26.189-31.78c0.809-0.147,1.618-0.294,2.501-0.368c1.25-0.147,2.501-0.22,3.752-0.22h55.321        C114.834,209.292,121.97,216.427,121.97,225.255z"/>
						<path style="opacity:0.1;fill:#050101;" d="M144.978,225.238v175.497c0,8.83-7.161,15.983-15.983,15.983H92.867        c-0.545-3.304-0.826-6.732-0.826-10.259V209.255h36.955C137.817,209.255,144.978,216.416,144.978,225.238z"/>
						<path style="fill:#535955;" d="M127.28,441.215L127.28,441.215c-12.947,0-23.539-10.593-23.539-23.539V208.299        c0-12.947,10.593-23.539,23.539-23.539l0,0c12.947,0,23.539,10.593,23.539,23.539v209.377        C150.82,430.623,140.227,441.215,127.28,441.215z"/>
					</g>
				</g>
			</g>
			<g>
				<path style="fill:#908265;" d="M256.005,0v58.852c-0.073,0-0.073,0-0.147,0c-9.711,0-19.274,0.956-28.543,2.648      c-2.943,0.589-5.812,1.177-8.68,1.913c-4.782,1.177-9.49,2.575-14.051,4.267c-30.824,10.666-58.263,30.529-80.185,55.762      l-0.295-0.22l-3.972-2.501l-0.883-0.588l-6.032-3.826L85.997,99.165l-1.324-0.883l-5.002-3.163      c32.736-51.716,86.806-85.408,148.086-93.354C236.952,0.589,246.368,0,255.858,0C255.932,0,255.932,0,256.005,0z"/>
			</g>
			<g>
				<path style="fill:#6A675C;" d="M256.005,48.431v10.446c-0.074,0-0.074,0-0.147,0c-9.711,0-19.274,0.956-28.543,2.648      c-2.943,0.589-5.812,1.177-8.68,1.913c-4.782,1.177-9.49,2.575-14.051,4.267c-30.824,10.666-58.263,30.529-80.186,55.762      l-0.294-0.22l-3.972-2.501C153.014,79.107,202.229,49.093,256.005,48.431z"/>
			</g>
		</g>
		<g>
			<g>
				<g>
					<g>
						<path style="fill:#C7BA81;" d="M256.005,16.504v40.902c54.291,0,102.475,25.968,131.901,65.84        c18.17,24.35,29.205,53.923,30.309,85.997c0.147,1.839,0.147,3.752,0.147,5.664c0,7.283-0.515,14.64-1.545,21.775l3.163,0.368        l8.166,0.883l35.164,3.826c1.25-8.828,1.913-17.876,1.913-26.851c0-1.839,0-3.605-0.147-5.444        c-0.441-17.876-3.384-35.311-8.681-52.01c-1.913-6.105-4.193-12.138-6.768-18.097c-6.18-14.125-14.051-27.66-23.614-40.166        c-6.327-8.386-13.462-16.405-21.26-23.909C365.101,37.396,312.355,16.504,256.005,16.504z"/>
					</g>
					<path style="fill:#FBECBA;" d="M256.005,3.924v40.902c55.689,0,105.271,29.573,136.756,75.33       c17.582,25.453,29.426,55.909,33.619,89.087c1.177,8.828,1.765,17.876,1.765,26.998v1.692       c-0.073,6.915-0.515,13.977-1.25,20.892l16.037,1.986l24.497,3.09c0.147-1.545,0.368-3.163,0.441-4.708       c0.735-7.651,1.104-15.302,1.104-22.952c0-8.901-0.441-17.729-1.398-26.41c-1.839-18.023-5.591-35.531-11.182-52.378       c-1.913-6.105-4.193-12.138-6.768-18.097c-6.032-14.419-13.462-28.175-22.29-41.049c-6.032-8.975-12.8-17.508-20.083-25.6       C366.94,28.347,313.238,3.924,256.005,3.924z"/>
				</g>
				<g>
					<g>
						<path style="fill:#535955;" d="M442.958,367.782h14.248c30.137,0,54.794-24.657,54.794-54.794v0        c0-30.137-24.657-54.794-54.794-54.794h-14.248V367.782z"/>
						<path style="fill:#85BCC4;" d="M390.021,225.238v175.497c0,8.83,7.161,15.983,15.983,15.983h55.349        c17.825,0,32.403-14.579,32.403-32.395V241.658c0-17.825-14.579-32.403-32.403-32.403h-55.349        C397.182,209.255,390.021,216.416,390.021,225.238z"/>
						<path style="opacity:0.1;fill:#050101;" d="M367.032,225.238v175.497c0,8.83,7.161,15.983,15.983,15.983h36.129        c0.545-3.304,0.826-6.732,0.826-10.259V209.255h-36.955C374.193,209.255,367.032,216.416,367.032,225.238z"/>
						<path style="fill:#535955;" d="M384.729,441.215L384.729,441.215c12.947,0,23.539-10.593,23.539-23.539V208.299        c0-12.947-10.593-23.539-23.539-23.539h0c-12.947,0-23.539,10.593-23.539,23.539v209.377        C361.19,430.623,371.783,441.215,384.729,441.215z"/>
					</g>
				</g>
			</g>
			<g>
				<path style="fill:#908265;" d="M432.34,95.119l-3.163,1.986l-1.839,1.177l-1.324,0.883l-33.251,20.966l-0.883,0.588      l-3.973,2.501l-0.294,0.22c-4.046-4.561-8.239-9.048-12.58-13.242c-1.471-1.471-2.942-2.869-4.414-4.193      c-18.538-16.92-39.872-30.235-63.192-38.327c-4.562-1.692-9.269-3.09-14.051-4.267c-2.869-0.736-5.738-1.324-8.681-1.913      c-9.269-1.692-18.833-2.648-28.543-2.648c-0.074,0-0.074,0-0.147,0V0c0.074,0,0.074,0,0.147,0      c36.267,0,70.843,8.901,101.078,25.159c27.734,14.934,51.716,36.12,70.034,62.383C429.029,90.043,430.721,92.545,432.34,95.119z      "/>
			</g>
			<g>
				<path style="fill:#6A675C;" d="M256.005,48.431v10.446c0.074,0,0.074,0,0.147,0c9.711,0,19.274,0.956,28.543,2.648      c2.943,0.589,5.812,1.177,8.681,1.913c4.782,1.177,9.49,2.575,14.051,4.267c30.824,10.666,58.263,30.529,80.186,55.762      l0.294-0.22l3.972-2.501C358.995,79.107,309.781,49.093,256.005,48.431z"/>
			</g>
		</g>
	</g>
	<g style="opacity:0.1;">
		<path style="fill:#040000;" d="M92.866,416.717h10.874v0.959c0,12.947,10.593,23.539,23.539,23.539    c12.947,0,23.539-10.593,23.539-23.539v-91.871l-90.912,90.912H92.866z"/>
		<path style="fill:#040000;" d="M493.756,272.336v-30.677c0-15.693-11.308-28.844-26.175-31.771    c-0.002-0.018-0.002-0.038-0.005-0.056c-1.839-18.023-5.591-35.531-11.182-52.378c-1.913-6.105-4.193-12.138-6.768-18.097    c-6.032-14.419-13.462-28.175-22.29-41.049l5.002-3.163c-6.543-10.339-13.987-19.905-22.119-28.739l-39.62,39.62    c5.975,5.462,11.663,11.285,17.012,17.442l0.294-0.221c18.17,24.35,29.205,53.923,30.309,85.997c0,0.004,0,0.008,0,0.012h-9.947    v-0.956c0-12.947-10.593-23.54-23.539-23.54c-12.947,0-23.539,10.593-23.539,23.54v209.377c0,12.947,10.593,23.539,23.539,23.539    c12.947,0,23.539-10.593,23.539-23.539v-0.959h10.874h42.21c17.825,0,32.403-14.579,32.403-32.395v-30.683    C504.915,343.591,512,329.094,512,312.987S504.915,282.384,493.756,272.336z"/>
	</g>
</g>
</svg>