<svg xmlns="http://www.w3.org/2000/svg" fill="#000000" width="800px" height="800px" viewBox="0 0 24 24" id="podcast" data-name="Flat Color" class="icon flat-color"><path id="primary" d="M14.42,13.08a3.26,3.26,0,0,0-5.66,2.51l.49,4.62a2,2,0,0,0,2,1.79h1.54a2,2,0,0,0,2-1.79l.49-4.62A3.28,3.28,0,0,0,14.42,13.08Z" style="fill: rgb(0, 0, 0);"/><path id="secondary" d="M18,14.56a1.07,1.07,0,0,1-.52-.14A1,1,0,0,1,17.16,13,5.82,5.82,0,0,0,18,10,6,6,0,0,0,6,10a5.82,5.82,0,0,0,.84,3,1,1,0,1,1-1.72,1,8,8,0,1,1,13.76,0A1,1,0,0,1,18,14.56ZM12,6a4,4,0,1,0,4,4A4,4,0,0,0,12,6Z" style="fill: rgb(44, 169, 188);"/></svg>