<svg xmlns="http://www.w3.org/2000/svg" width="800px" height="800px" viewBox="0 0 1024 1024" class="icon" version="1.1"><path d="M908.8 870.4c0 14.08-11.52 25.6-25.6 25.6H140.8c-14.08 0-25.6-11.52-25.6-25.6V384c0-14.08 11.52-25.6 25.6-25.6h742.4c14.08 0 25.6 11.52 25.6 25.6v486.4z" fill="#68AC9B"/><path d="M883.2 908.8H140.8c-21.76 0-38.4-16.64-38.4-38.4V384c0-21.76 16.64-38.4 38.4-38.4h742.4c21.76 0 38.4 16.64 38.4 38.4v486.4c0 21.76-16.64 38.4-38.4 38.4zM140.8 371.2c-7.68 0-12.8 5.12-12.8 12.8v486.4c0 7.68 5.12 12.8 12.8 12.8h742.4c7.68 0 12.8-5.12 12.8-12.8V384c0-7.68-5.12-12.8-12.8-12.8H140.8z" fill="#231C1C"/><path d="M640 640m-179.2 0a179.2 179.2 0 1 0 358.4 0 179.2 179.2 0 1 0-358.4 0Z" fill="#FAC546"/><path d="M640 832c-106.24 0-192-85.76-192-192s85.76-192 192-192 192 85.76 192 192-85.76 192-192 192z m0-358.4c-92.16 0-166.4 74.24-166.4 166.4s74.24 166.4 166.4 166.4 166.4-74.24 166.4-166.4-74.24-166.4-166.4-166.4z" fill="#231C1C"/><path d="M217.6 793.6m-37.12 0a37.12 37.12 0 1 0 74.24 0 37.12 37.12 0 1 0-74.24 0Z" fill="#FAC546"/><path d="M217.6 843.52c-28.16 0-49.92-23.04-49.92-49.92s23.04-49.92 49.92-49.92 49.92 23.04 49.92 49.92-21.76 49.92-49.92 49.92z m0-74.24c-14.08 0-24.32 11.52-24.32 24.32s11.52 24.32 24.32 24.32 24.32-11.52 24.32-24.32-10.24-24.32-24.32-24.32z" fill="#231C1C"/><path d="M332.8 793.6m-38.4 0a38.4 38.4 0 1 0 76.8 0 38.4 38.4 0 1 0-76.8 0Z" fill="#FAC546"/><path d="M332.8 844.8c-28.16 0-51.2-23.04-51.2-51.2s23.04-51.2 51.2-51.2 51.2 23.04 51.2 51.2-23.04 51.2-51.2 51.2z m0-76.8c-14.08 0-25.6 11.52-25.6 25.6s11.52 25.6 25.6 25.6 25.6-11.52 25.6-25.6-11.52-25.6-25.6-25.6zM357.12 170.24c-1.28 0-3.84 0-5.12-1.28L268.8 135.68c-2.56-1.28-5.12-3.84-6.4-6.4-1.28-2.56-1.28-6.4 0-10.24l10.24-24.32c2.56-5.12 8.96-8.96 16.64-6.4L371.2 122.88c6.4 2.56 10.24 10.24 7.68 16.64l-10.24 24.32c-1.28 2.56-3.84 5.12-6.4 6.4h-5.12z m-16.64-33.28l10.24 3.84-10.24-3.84z" fill="#231C1C"/><path d="M356.8256 158.4256l9.6256-23.7184L864.5888 336.896l-9.6256 23.7184zM627.2 460.8h25.6v358.4h-25.6z" fill="#231C1C"/><path d="M563.2 486.4h25.6v307.2h-25.6z" fill="#231C1C"/><path d="M691.2 486.4h25.6v307.2h-25.6z" fill="#231C1C"/><path d="M755.2 524.8h25.6v230.4h-25.6z" fill="#231C1C"/><path d="M499.2 524.8h25.6v230.4h-25.6z" fill="#231C1C"/><path d="M166.4 422.4h307.2v25.6H166.4z" fill="#231C1C"/></svg>

