<!-- <svg xmlns="http://www.w3.org/2000/svg" width="20" height="20" viewBox="0 0 20 20" fill="none">
  <path d="M9.58332 17.5C13.9556 17.5 17.5 13.9556 17.5 9.58333C17.5 5.21108 13.9556 1.66666 9.58332 1.66666C5.21107 1.66666 1.66666 5.21108 1.66666 9.58333C1.66666 13.9556 5.21107 17.5 9.58332 17.5Z" stroke="white" stroke-width="1.5" stroke-linecap="round" stroke-linejoin="round"/>
  <path d="M18.3333 18.3333L16.6667 16.6667" stroke="white" stroke-width="1.5" stroke-linecap="round" stroke-linejoin="round"/>
</svg> -->
<svg xmlns="http://www.w3.org/2000/svg" fill="#000000" width="800px" height="800px" viewBox="0 0 24 24" id="search-alt-3" data-name="Flat Line" class="icon flat-line"><circle id="secondary" cx="10" cy="10" r="7" style="fill: rgb(44, 169, 188); stroke-width: 2;"/><line id="primary-upstroke" x1="20.5" y1="20.5" x2="17" y2="17" style="fill: none; stroke: rgb(0, 0, 0); stroke-linecap: round; stroke-linejoin: round; stroke-width: 2.5;"/><path id="primary" d="M20,20,15,15M10,3a7,7,0,1,0,7,7A7,7,0,0,0,10,3Z" style="fill: none; stroke: rgb(0, 0, 0); stroke-linecap: round; stroke-linejoin: round; stroke-width: 2;"/></svg>